<svg width="71" height="10" viewBox="0 0 71 10" fill="none" xmlns="http://www.w3.org/2000/svg">
<path d="M5.19407 0.186564C5.31449 -0.0621883 5.68551 -0.0621879 5.80593 0.186564L7.1795 3.02409C7.22857 3.12547 7.3294 3.19527 7.44576 3.20842L10.7024 3.57634C10.9878 3.60859 11.1025 3.94483 10.8914 4.13082L8.48374 6.25243C8.39772 6.32823 8.3592 6.44118 8.38204 6.55068L9.02116 9.61559C9.07719 9.88428 8.77702 10.0921 8.52616 9.95828L5.66456 8.43198C5.56232 8.37745 5.43768 8.37745 5.33544 8.43198L2.47384 9.95828C2.22298 10.0921 1.92281 9.88428 1.97884 9.61559L2.61796 6.55068C2.6408 6.44117 2.60228 6.32823 2.51626 6.25243L0.108572 4.13082C-0.102498 3.94483 0.0121564 3.60859 0.297647 3.57634L3.55424 3.20842C3.6706 3.19527 3.77143 3.12547 3.8205 3.02409L5.19407 0.186564Z" fill="#FF9B05"/>
<path d="M35.1941 0.186564C35.3145 -0.0621883 35.6855 -0.0621879 35.8059 0.186564L37.1795 3.02409C37.2286 3.12547 37.3294 3.19527 37.4458 3.20842L40.7024 3.57634C40.9878 3.60859 41.1025 3.94483 40.8914 4.13082L38.4837 6.25243C38.3977 6.32823 38.3592 6.44118 38.382 6.55068L39.0212 9.61559C39.0772 9.88428 38.777 10.0921 38.5262 9.95828L35.6646 8.43198C35.5623 8.37745 35.4377 8.37745 35.3354 8.43198L32.4738 9.95828C32.223 10.0921 31.9228 9.88428 31.9788 9.61559L32.618 6.55068C32.6408 6.44117 32.6023 6.32823 32.5163 6.25243L30.1086 4.13082C29.8975 3.94483 30.0122 3.60859 30.2976 3.57634L33.5542 3.20842C33.6706 3.19527 33.7714 3.12547 33.8205 3.02409L35.1941 0.186564Z" fill="#FF9B05"/>
<path d="M20.1941 0.186564C20.3145 -0.0621883 20.6855 -0.0621879 20.8059 0.186564L22.1795 3.02409C22.2286 3.12547 22.3294 3.19527 22.4458 3.20842L25.7024 3.57634C25.9878 3.60859 26.1025 3.94483 25.8914 4.13082L23.4837 6.25243C23.3977 6.32823 23.3592 6.44118 23.382 6.55068L24.0212 9.61559C24.0772 9.88428 23.777 10.0921 23.5262 9.95828L20.6646 8.43198C20.5623 8.37745 20.4377 8.37745 20.3354 8.43198L17.4738 9.95828C17.223 10.0921 16.9228 9.88428 16.9788 9.61559L17.618 6.55068C17.6408 6.44117 17.6023 6.32823 17.5163 6.25243L15.1086 4.13082C14.8975 3.94483 15.0122 3.60859 15.2976 3.57634L18.5542 3.20842C18.6706 3.19527 18.7714 3.12547 18.8205 3.02409L20.1941 0.186564Z" fill="#FF9B05"/>
<path d="M50.1941 0.186564C50.3145 -0.0621883 50.6855 -0.0621879 50.8059 0.186564L52.1795 3.02409C52.2286 3.12547 52.3294 3.19527 52.4458 3.20842L55.7024 3.57634C55.9878 3.60859 56.1025 3.94483 55.8914 4.13082L53.4837 6.25243C53.3977 6.32823 53.3592 6.44118 53.382 6.55068L54.0212 9.61559C54.0772 9.88428 53.777 10.0921 53.5262 9.95828L50.6646 8.43198C50.5623 8.37745 50.4377 8.37745 50.3354 8.43198L47.4738 9.95828C47.223 10.0921 46.9228 9.88428 46.9788 9.61559L47.618 6.55068C47.6408 6.44117 47.6023 6.32823 47.5163 6.25243L45.1086 4.13082C44.8975 3.94483 45.0122 3.60859 45.2976 3.57634L48.5542 3.20842C48.6706 3.19527 48.7714 3.12547 48.8205 3.02409L50.1941 0.186564Z" fill="#BBBBBB"/>
<path d="M65.1941 0.186564C65.3145 -0.0621883 65.6855 -0.0621879 65.8059 0.186564L67.1795 3.02409C67.2286 3.12547 67.3294 3.19527 67.4458 3.20842L70.7024 3.57634C70.9878 3.60859 71.1025 3.94483 70.8914 4.13082L68.4837 6.25243C68.3977 6.32823 68.3592 6.44118 68.382 6.55068L69.0212 9.61559C69.0772 9.88428 68.777 10.0921 68.5262 9.95828L65.6646 8.43198C65.5623 8.37745 65.4377 8.37745 65.3354 8.43198L62.4738 9.95828C62.223 10.0921 61.9228 9.88428 61.9788 9.61559L62.618 6.55068C62.6408 6.44117 62.6023 6.32823 62.5163 6.25243L60.1086 4.13082C59.8975 3.94483 60.0122 3.60859 60.2976 3.57634L63.5542 3.20842C63.6706 3.19527 63.7714 3.12547 63.8205 3.02409L65.1941 0.186564Z" fill="#BBBBBB"/>
</svg>
