<svg width="46" height="46" viewBox="0 0 46 46" fill="none" xmlns="http://www.w3.org/2000/svg">
<rect width="46" height="46" rx="23" fill="#FF2805"/>
<path fill-rule="evenodd" clip-rule="evenodd" d="M17.7789 12H40.2494H40.2501C40.5958 12 40.8766 12.2808 40.8766 12.6265C40.8766 12.9719 40.5958 13.253 40.2501 13.253H17.7796C14.7471 13.253 11.8271 14.3157 9.42288 16.2333H17.5978C17.9796 16.2333 18.3306 16.4417 18.5141 16.7768C18.697 17.1118 18.6827 17.5198 18.4769 17.8409C18.2572 18.1832 17.9698 18.6314 17.6639 19.1086L17.6631 19.1099L17.1366 19.931C16.1396 21.4846 14.5065 22.4014 12.7691 22.4014H5.00698C4.95831 23.0736 5.06404 23.7617 5.33191 24.3996C5.91809 25.795 7.18531 26.7034 8.59158 26.7034L8.60434 26.7035H14.9183C15.264 26.7035 15.5448 26.9843 15.5448 27.33C15.5448 27.6754 15.264 27.9565 14.9183 27.9565H2.84536C2.49967 27.9565 2.21887 27.6754 2.21887 27.33C2.21887 26.9843 2.49967 26.7035 2.84536 26.7035H5.44354C4.91371 26.2153 4.47722 25.5999 4.17681 24.8849C3.74867 23.8666 3.64314 22.75 3.838 21.6948C3.84132 21.669 3.84621 21.6436 3.85259 21.6188C4.01795 20.7875 4.37048 19.997 4.89924 19.326L6.04818 17.868C8.9873 14.1387 13.2724 12 17.7789 12ZM7.03266 18.6436C7.35299 18.2371 7.69069 17.851 8.04404 17.4863H17.2162L17.2161 17.4866L16.0817 19.2544C15.324 20.4364 14.0906 21.1484 12.7691 21.1484H5.28774C5.43331 20.7739 5.63252 20.4202 5.88372 20.1015L6.56918 19.2317L7.03266 18.6436ZM42.72 27.9565H17.1801C16.8344 27.9565 16.5536 27.6754 16.5536 27.33C16.5536 26.9843 16.8344 26.7035 17.1801 26.7035H42.72C43.0657 26.7035 43.3465 26.9843 43.3465 27.33C43.3465 27.6754 43.0657 27.9565 42.72 27.9565ZM33.4289 30.8111H41.9796C42.2266 30.8111 42.493 30.5178 42.493 30.1771C42.493 29.8366 42.2266 29.576 41.9796 29.576H33.4289C33.1819 29.576 32.9813 29.8531 32.9813 30.1935C32.9813 30.5343 33.1819 30.8111 33.4289 30.8111ZM14.0387 30.8111H31.9503C32.1973 30.8111 32.398 30.5343 32.398 30.1935C32.398 29.8531 32.1973 29.576 31.9503 29.576H14.0387C13.7916 29.576 13.591 29.8531 13.591 30.1935C13.591 30.5343 13.7916 30.8111 14.0387 30.8111ZM21.6134 33.9793H18.1498C17.9393 33.9793 17.7683 33.7025 17.7683 33.3618C17.7683 33.0213 17.9393 32.7442 18.1498 32.7442H21.6134C21.8239 32.7442 21.9949 33.0213 21.9949 33.3618C21.9949 33.7025 21.8239 33.9793 21.6134 33.9793ZM40.4885 33.9793H23.6596C23.4491 33.9793 23.278 33.7025 23.278 33.3618C23.278 33.0213 23.4491 32.7442 23.6596 32.7442H40.4885C40.6991 32.7442 40.9775 33.0213 40.9775 33.3618C40.9775 33.7025 40.6991 33.9793 40.4885 33.9793ZM25.704 16.2336H30.0343H35.7407H42.2361C42.5818 16.2336 42.8626 16.5144 42.8626 16.8601C42.8626 17.2058 42.5818 17.4866 42.2361 17.4866H36.3671V21.1487H43.149C43.4947 21.1487 43.7755 21.4298 43.7755 21.7752C43.7755 22.1209 43.4947 22.4017 43.149 22.4017H35.7407H30.0343H25.704C24.6658 22.4017 23.8245 21.5604 23.8245 20.5222V18.1131C23.8245 17.0749 24.6658 16.2336 25.704 16.2336ZM35.1142 21.1487H30.6608V17.4866H35.1142V21.1487ZM29.4078 17.4866H25.704C25.3578 17.4866 25.0775 17.7668 25.0775 18.1131V20.5222C25.0775 20.8685 25.3578 21.1487 25.704 21.1487H29.4078V17.4866Z" fill="white"/>
</svg>
